<?xml version="1.0" encoding="UTF-8" standalone="no"?>
<!-- Created with Inkscape (http://www.inkscape.org/) -->

<svg
   width="1920"
   height="1080"
   viewBox="0 0 507.99998 285.74999"
   version="1.1"
   id="svg1"
   inkscape:version="1.4 (e7c3feb100, 2024-10-09)"
   sodipodi:docname="intro.svg"
   xml:space="preserve"
   inkscape:export-filename="/home/neosahadeo/intro.png"
   inkscape:export-xdpi="96"
   inkscape:export-ydpi="96"
   xmlns:inkscape="http://www.inkscape.org/namespaces/inkscape"
   xmlns:sodipodi="http://sodipodi.sourceforge.net/DTD/sodipodi-0.dtd"
   xmlns="http://www.w3.org/2000/svg"
   xmlns:svg="http://www.w3.org/2000/svg"><sodipodi:namedview
     id="namedview1"
     pagecolor="#505050"
     bordercolor="#eeeeee"
     borderopacity="1"
     inkscape:showpageshadow="0"
     inkscape:pageopacity="0"
     inkscape:pagecheckerboard="0"
     inkscape:deskcolor="#141414"
     inkscape:document-units="px"
     inkscape:clip-to-page="true"
     inkscape:zoom="0.59468256"
     inkscape:cx="887.02786"
     inkscape:cy="609.56891"
     inkscape:window-width="1920"
     inkscape:window-height="1045"
     inkscape:window-x="0"
     inkscape:window-y="0"
     inkscape:window-maximized="1"
     inkscape:current-layer="layer1"
     showgrid="false" /><defs
     id="defs1" /><g
     inkscape:label="Layer 1"
     inkscape:groupmode="layer"
     id="layer1"><rect
       style="fill:#ffffff;fill-opacity:1;fill-rule:evenodd;stroke-width:1.61396;stroke-linecap:round;stroke-linejoin:round;stroke-dasharray:3.22792, 1.61396, 0.806979, 1.61396;paint-order:markers fill stroke"
       id="rect1"
       width="507.99997"
       height="285.75"
       x="0"
       y="0"
       sodipodi:insensitive="true" /><text
       xml:space="preserve"
       style="font-weight:bold;font-size:45.7845px;line-height:1.2;font-family:'Roboto Mono';-inkscape-font-specification:'Roboto Mono, Bold';text-align:start;writing-mode:lr-tb;direction:ltr;text-anchor:start;fill:#0c0c0c;fill-rule:evenodd;stroke-width:1.61396;stroke-linecap:round;stroke-linejoin:round;stroke-dasharray:3.22792, 1.61396, 0.806979, 1.61396;paint-order:markers fill stroke;fill-opacity:1"
       x="123.42548"
       y="141.03429"
       id="text1"><tspan
         sodipodi:role="line"
         id="tspan1"
         style="fill:#0c0c0c;fill-opacity:1;stroke-width:1.61396"
         x="123.42548"
         y="141.03429"> evops</tspan></text><text
       xml:space="preserve"
       style="font-weight:bold;font-size:19.7556px;line-height:1.2;font-family:'Roboto Mono';-inkscape-font-specification:'Roboto Mono, Bold';text-align:start;writing-mode:lr-tb;direction:ltr;text-anchor:start;fill:#000000;fill-opacity:1;fill-rule:evenodd;stroke-width:1.61396;stroke-linecap:round;stroke-linejoin:round;stroke-dasharray:3.22792, 1.61396, 0.806979, 1.61396;paint-order:markers fill stroke"
       x="126.7163"
       y="166.75883"
       id="text26"><tspan
         sodipodi:role="line"
         id="tspan26"
         style="fill:#000000;fill-opacity:1;stroke-width:1.61396"
         x="126.7163"
         y="166.75883">Current Practices</tspan></text><path
       style="fill:#000000;fill-opacity:1;fill-rule:evenodd;stroke-width:1.61396;stroke-linecap:round;stroke-linejoin:round;stroke-dasharray:3.22792, 1.61396, 0.806979, 1.61396;paint-order:markers fill stroke"
       d="m 39.872579,287.91895 c 0,0 4.28231,-24.74841 4.67161,-26.69491 0.38931,-1.9465 1.66844,-10.34428 0.77861,-13.34746 0.0556,-1.89089 0,-2.39142 -0.44492,-2.83633 -0.44492,-0.44492 -0.72299,-2.22458 -0.50053,-2.39142 0.22246,-0.16685 1.22986,0.58756 1.22986,0.58756 0,0 -0.0983,0.0983 0.13764,-0.0393 0.23595,-0.13764 0.33426,0.23595 0.60954,-0.80617 0.27528,-1.04212 1.74998,-4.91566 1.74998,-4.91566 l 0.19662,-1.71066 1.1601,-0.19662 c 0,0 0.059,-2.28087 0.059,-2.35952 0,-0.0787 -0.0393,-5.17128 -0.0786,-6.48868 -0.0393,-1.3174 -0.11798,-4.05051 -0.17697,-4.56174 -0.059,-0.51123 -0.43258,-2.87075 -0.43258,-2.87075 0,0 0.0197,-8.0027 0.15731,-8.08135 0.13764,-0.0787 1.67132,0.13764 1.67132,0.13764 l -0.88482,-6.64598 3.28367,-2.37937 c 0,0 0.1573,0.57041 0.4719,0.66872 0.3146,0.0983 1.7893,-0.19663 1.7893,-0.19663 0,0 0.35393,-0.47209 0.45224,-0.47209 0.0983,0 1.59268,-0.688 1.73032,-0.82564 0.13764,-0.13764 0.55055,-0.6882 0.55055,-0.6882 l 0.94381,0.0197 0.72752,-0.53089 0.62921,-0.4719 0.66853,-1.1601 c 0,0 0.57021,-0.49157 0.57021,-0.60954 0,-0.11798 0.0786,-1.21909 0.0786,-1.21909 0,0 0.059,-0.55055 0.19663,-0.6292 0.13764,-0.0786 0.35393,-0.17697 0.35393,-0.17697 0,0 0.49156,0.0983 0.92414,0.0787 0.43258,-0.0197 1.04212,0.0197 1.10111,-0.059 0.059,-0.0787 0.23595,-0.55056 0.4719,-0.6882 0.23596,-0.13764 0.86516,-0.17696 0.98314,-0.35392 0.11798,-0.17697 1.10111,-0.49157 1.35672,-1.35673 0.25562,-0.86516 0.0787,-0.64886 0.74718,-1.06178 0.66853,-0.41292 1.29774,-0.70786 1.21909,-1.37639 -0.0787,-0.66853 -0.35393,-1.632 -0.0983,-1.90727 0.25561,-0.27528 0.92414,-1.08145 0.9438,-1.3174 0.0197,-0.23595 -0.0569,-1.41566 -0.19598,-1.73544 -0.13903,-0.31978 -0.20855,-0.81336 -0.17379,-1.13314 0.0348,-0.31979 -0.0904,-1.55025 -0.0904,-1.61282 0,-0.0626 -0.0208,-0.25722 -0.007,-0.3893 0.0139,-0.13209 11.91076,-11.62629 11.91076,-11.62629 0,0 0.29003,-0.2212 0.23596,-0.59971 -0.0295,-0.23103 -0.408,-0.6587 -1.25841,-1.11094 -0.70294,-0.39325 -13.50825,-6.62631 -13.50825,-6.62631 0,0 -1.08537,-0.68361 -1.42601,-0.53762 -0.34064,0.14599 -0.40321,0.0487 -1.22352,0.79251 -0.82031,0.74384 -9.02343,8.14055 -9.02343,8.14055 l -7.66527,7.10857 c 0,0 -1.03839,-3.86903 -1.20523,-4.10539 -0.16684,-0.23636 0.34991,-4.85096 0.0353,-7.66272 -0.3146,-2.81176 -1.71065,-10.99143 -4.75836,-14.29476 -0.29494,-0.49156 -1.21378,-2.04014 -1.21378,-2.04014 l -0.36149,-0.69518 1.64062,-0.70908 c 0,0 0.70909,-0.65347 1.22352,-0.86203 0.51443,-0.20855 1.07058,-0.73689 1.22352,-0.83421 0.15294,-0.0973 1.5572,-1.37646 1.77966,-1.57111 0.22245,-0.19465 0.37539,-0.91764 1.20961,-1.19571 0.83422,-0.27807 1.01496,-0.52833 1.57111,-0.72298 0.55614,-0.19466 1.9465,-1.25133 2.12725,-1.58501 0.18075,-0.33369 1.48768,-1.23743 1.83527,-1.48769 0.34759,-0.25026 0.72299,-0.7786 0.95935,-0.94545 0.23636,-0.16684 1.11229,-0.62566 1.51549,-0.61175 0.40321,0.0139 2.22458,0 2.53046,-0.0139 0.30588,-0.0139 1.00106,-0.0834 1.71014,-0.22246 0.70908,-0.13904 1.40426,-0.43101 1.79357,-0.79251 0.3893,-0.36149 1.22351,-1.39036 1.26522,-1.77966 0.0417,-0.3893 0.86203,-2.59997 0.88983,-3.1144 0.0278,-0.51444 0.23636,-0.7369 0.52834,-1.04277 0.29198,-0.30588 1.61282,-1.5155 1.77966,-1.64063 0.16685,-0.12513 2.40532,-3.14221 2.50265,-3.23954 0.0973,-0.0973 1.64063,-2.23848 1.65453,-2.29409 0.0139,-0.0556 3.76788,-5.0053 4.81064,-5.95074 1.04277,-0.94545 3.39248,-3.30906 3.89301,-3.69836 0.50053,-0.3893 1.01497,-0.98716 1.59892,-0.88983 0.58395,0.10428 0.74384,0.33369 0.93154,0.43796 0.1877,0.10428 0.56309,0.22941 1.01496,0.22941 0.45187,0 1.25133,0 1.3278,-0.0208 0.0765,-0.0209 1.63443,0.0221 2.10633,-0.20397 0.47191,-0.22612 1.42555,-0.61937 2.28087,-0.99296 0.85533,-0.37359 1.808974,-0.76685 1.936774,-1.06179 0.12781,-0.29494 -0.0688,-0.33426 0.3441,-0.49156 0.41292,-0.15731 1.75981,-0.58988 1.75981,-0.58988 0,0 1.11586,-0.1573 1.04703,-1.19451 -0.0197,-0.20154 0.0443,-1.14043 -1.07161,-1.24858 -0.19171,-0.0197 -1.54844,-0.0885 -1.61234,-0.0541 -0.0639,0.0344 -1.499274,0.65379 -1.661494,0.69311 -0.16222,0.0393 -0.52598,0.16222 -0.50632,0.0344 0.0197,-0.12781 0.42275,-0.66361 0.49648,-0.78159 0.0737,-0.11798 0.40705,-1.6513 0.40009,-1.93633 -0.007,-0.28502 0.0626,-0.47967 -0.0556,-0.61176 -0.11818,-0.13208 -0.0889,-0.66675 0.12251,-0.89287 0.21138,-0.22612 0.825844,-0.83567 1.145354,-1.10111 0.31952,-0.26545 1.09128,-1.13061 1.09128,-1.13061 0,0 1.27808,-1.6959 1.36164,-1.82862 0.0836,-0.13273 0.86024,-1.28299 1.08636,-1.48945 0.22612,-0.20646 0.39817,-0.417832 0.408,-0.535812 0.01,-0.11797 0.13764,-1.489441 -0.63903,-1.622164 -0.45716,-0.05899 -0.9094,0.127807 -0.98805,0.191709 -0.0787,0.0639 -0.36376,0.294941 -0.42766,0.393253 -0.0639,0.09831 -4.363064,4.032294 -4.363064,4.032294 0,0 -0.71483,0.54419 -1.20639,0.57369 -0.49157,0.0295 -1.0667,0.0639 -1.15518,0.01 -0.0885,-0.0541 -0.29986,-0.45716 -0.38343,-0.49648 -0.0836,-0.0393 -0.65378,-0.49157 -1.22891,0.01 -0.57514,0.5014 -1.16993,0.78651 -1.15027,0.96347 0.0197,0.17696 0.005,0.25561 0.005,0.25561 0,0 -0.90939,-0.48173 -1.0372,-0.37359 -0.12781,0.10815 -1.0317,0.35068 -1.2472,0.55923 -0.21551,0.20856 -0.7647,0.43797 -0.7647,0.43797 0,0 -1.87004,1.28608 -2.17592,1.84918 -0.30588,0.56309 -1.03581,1.52244 -1.33474,1.89088 -0.29893,0.36845 -0.22941,0.41711 -0.51443,0.48663 -0.28503,0.0695 -1.17486,0.27807 -1.25828,0.3893 -0.0834,0.11123 -5.52668,4.38659 -5.52668,4.38659 l -5.32508,3.5037 -3.78178,2.94757 c 0,0 -3.79568,-2.43313 -5.88122,-2.50265 -0.19465,-0.26417 -1.84918,-1.66843 -1.77966,-1.80747 0.0695,-0.13904 -0.27808,-2.47484 -0.7647,-3.42028 -0.48663,-0.94545 -0.82032,-2.43313 -0.91764,-2.57217 -0.0973,-0.13904 -1.64063,-2.19677 -1.68233,-2.25238 -0.0417,-0.0556 -0.40321,-0.84812 -0.43102,-1.1401 -0.0278,-0.29197 -0.19465,-1.36255 -0.23636,-1.47378 -0.0417,-0.11123 -1.40426,-1.25132 -1.47378,-1.30694 -0.0695,-0.0556 -2.00212,-1.19571 -2.00212,-1.19571 0,0 -2.87804,-1.33474 -3.50371,-1.43207 -0.62566,-0.0973 -1.1818,-0.0417 -1.41816,-0.0417 -0.23636,0 -2.50265,0.0417 -2.50265,0.0417 0,0 -2.19677,0.0834 -4.94968,0.86202 -2.75292,0.77861 -4.19889,1.64063 -4.19889,1.64063 0,0 -2.40532,1.43902 -2.90585,1.96736 -0.50053,0.52834 -5.32508,4.53952 -6.10368,12.26992 -0.0556,0.72299 -0.22059,1.06265 -0.3484,1.3281 -0.12781,0.26544 -0.69803,1.01262 -0.80617,1.16009 -0.10814,0.14747 -0.57022,0.48174 -0.69802,0.70786 -0.12781,0.22612 -0.5309,1.18959 0.11797,2.24154 0.64887,1.05196 0.30477,0.83567 0.86516,1.29774 0.56038,0.46207 1.45504,1.05195 1.71065,1.1306 0.01,0.22612 0.0197,0.82583 0.0197,0.82583 0,0 -0.3441,0.0295 -0.39326,0.059 -0.0491,0.0295 -0.1278,0.79634 -0.1278,0.79634 l 0.19662,0.22612 0.45224,0.0983 0.0263,1.71018 0.18075,0.86202 c 0,0 0.80641,1.82138 0.97325,2.18287 0.16685,0.36149 0.83422,1.01496 0.80641,1.20961 -0.0278,0.19465 -0.0834,2.79463 -0.0834,2.79463 0,0 -3.21173,1.01496 -3.21173,1.14009 0,0.12513 -0.40321,0 -0.40321,0 0,0 -0.27807,0.29198 -0.51443,0.3754 -0.23636,0.0834 -1.27913,0.13904 -1.27913,0.13904 0,0 -2.15506,3.15611 -2.34971,3.5176 -0.19465,0.3615 -2.89195,4.19889 -3.00318,4.58819 -0.11123,0.3893 -2.3914104,6.72935 -2.4470304,7.3133 -0.0556,0.58395 -0.75079,2.61388 -0.75079,3.19783 0,0.58395 0.16684,1.1401 -0.25027,1.69624 -0.41711,0.55614 -1.08448,2.47484 -1.08448,2.47484 0,0 -1.167902,2.75291 -1.501592,6.70154 -0.33369,3.94862 -1.29011,24.15758 -1.29011,24.15758 l 0.31461,12.50546 0.23595,2.51681 1.10111,7.55047 -0.94381,1.49436 -0.23595,6.0561 -0.1573,8.02236 0.78085,2.26519 c 0,0 -0.58395,-0.0278 -0.44491,1.22351 0.13903,1.25133 0.27807,2.64169 0.36149,2.80853 0.0834,0.16685 0.55614,0.83422 0.63956,1.05668 0.0834,0.22245 0.246,0.77193 0.17294,0.64538 -0.0731,-0.12654 -0.69393,-0.23253 -0.92005,0.13122 -0.22612,0.36376 -0.33427,0.89466 -0.26545,1.13061 0.0688,0.23595 0.55056,0.92414 0.55056,0.98313 0,0.059 0.816,0.37359 0.816,0.43258 0,0.059 0.344092,0.45224 0.481732,0.45224 0.13764,0 0.19314,2.09216 0.22095,2.34242 0.0278,0.25026 1.25132,2.86414 1.27913,3.11441 0.0278,0.25026 0.66737,1.25132 0.94545,1.33474 0.27807,0.0834 1.0844701,0.55615 1.3347401,0.58395 0.2502703,0.0278 0.5160203,0.35191 0.5455203,0.52887 0.0295,0.17696 -0.3539303,0.55055 -0.5210603,0.83566 -0.16714,0.28511 -1.2340701,2.68142 -1.2062601,2.86217 0.0278,0.18075 0.1668401,1.47378 0.1946401,1.5433 0.0278,0.0695 2.2941003,1.62672 2.3775203,1.61282 0.0834,-0.0139 0.50205,2.44649 0.4234,2.99704 -0.0786,0.55056 -0.41292,1.96627 -0.37359,2.06458 0.0393,0.0983 -0.51123,10.77514 -0.51123,10.77514 l 0.35393,8.45494 v 8.14035 z"
       id="path26" /><g
       id="g29"
       transform="matrix(-1,0,0,1,697.56486,15.361548)"
       style="stroke:#000000;stroke-opacity:1;fill:#7f55ff;fill-opacity:0"><path
         style="fill:#131313;fill-opacity:0.96153599;fill-rule:evenodd;stroke-width:0.92604162;stroke-linecap:round;stroke-linejoin:round;stroke-dasharray:none;paint-order:markers fill stroke;stroke:#000000;stroke-opacity:1;stroke-dashoffset:0"
         d="m 336.74273,271.38404 4.08983,-6.92126 -0.90448,-5.15161 c 0,0 -2.12358,-14.78632 -2.87076,-16.75259 -0.74718,-1.96627 -4.48307,-15.92676 -4.9943,-16.87056 -0.51123,-0.94381 -3.6966,-8.41562 -5.2696,-10.26391 -1.73032,-1.84829 -4.71903,-5.93813 -4.71903,-5.93813 l -2.22268,-3.84978 c 0,0 -1.36192,0.1927 -1.33411,0.0815 0.0278,-0.11122 -0.19466,-2.21067 -0.19466,-2.26628 0,-0.0556 -1.02888,-1.00106 -1.05669,-1.12619 -0.0278,-0.12514 -0.75078,-1.29304 -0.88982,-1.37646 -0.13904,-0.0834 -0.26416,-0.69518 -0.86201,-0.93154 -0.59785,-0.23636 -3.57323,-1.86308 -4.2128,-2.14116 -0.63958,-0.27807 -5.47802,-2.308 -12.20737,-2.97537 -0.0834,-0.50053 0.014,-0.69257 0.014,-0.69257 0,0 -2.52667,-1.32723 -4.00137,-1.4747 -1.47469,-0.14747 -2.71344,-0.16714 -2.83142,-0.3146 -0.11797,-0.14747 -1.54352,-0.88482 -1.59268,-0.94381 -0.0491,-0.059 -1.88762,-1.11094 -2.12355,-1.17976 -0.23595,-0.0688 -1.62218,-0.52106 -1.70082,-0.59971 -0.0787,-0.0786 -3.04771,-1.75981 -3.04771,-1.75981 0,0 -2.42834,-1.48453 -3.09689,-1.57301 -0.66853,-0.0885 -1.62216,0.3146 -1.7598,0.58988 -0.13764,-0.19663 -0.79872,-0.54701 -1.20192,-2.53522 -0.13904,-0.48663 -0.27115,-1.07058 -0.27115,-1.29999 0,-0.22941 -0.38928,-1.33474 -0.47966,-1.36255 -0.0904,-0.0278 -0.20854,-0.0904 -0.20854,-0.0904 0,0 0.014,-1.13314 0.0904,-1.3695 0.0765,-0.23636 0.59092,-1.27913 0.68823,-1.38341 0.0973,-0.10428 0.36846,-0.75774 0.6952,-1.03582 0.32673,-0.27807 1.18874,-1.17485 1.60586,-1.42512 0.41712,-0.25026 1.05667,-1.07752 1.05667,-1.07752 0,0 1.00105,-2.20372 1.27912,-2.69035 0.27808,-0.48663 1.15401,-2.03688 1.15401,-2.03688 0,0 0.22942,-1.07753 0.28504,-1.81442 0.0556,-0.73689 0.0652,-3.74372 0.24212,-4.56955 0.17698,-0.82583 0.39325,-2.73311 0.43259,-2.9494 0.0393,-0.21629 0.059,-1.51403 0.0196,-2.02526 -0.0393,-0.51123 -0.26686,-1.33188 -0.28075,-1.37707 -0.014,-0.0452 -0.15642,-0.28154 -0.10427,-0.38235 0.0521,-0.1008 0.31977,-0.17379 0.35801,-0.20855 0.0382,-0.0348 0.22942,-0.38235 0.21899,-0.36149 -0.0106,0.0208 1.44598,0.0556 1.56763,0.0417 0.12166,-0.0139 0.78555,-0.12513 1.10532,-1.04277 0.31978,-0.91764 0.58397,-1.5572 0.723,-1.7171 0.13902,-0.15989 0.38929,-0.78555 0.50052,-0.93849 0.11123,-0.15294 0.54919,-0.73689 0.54919,-0.73689 0,0 1.44598,-2.03688 1.61282,-2.29409 0.16685,-0.25722 0.66739,-1.22352 0.66739,-1.22352 0,0 0.4753,-0.77048 0.5343,-2.26484 0.059,-1.49436 0.43256,-6.07576 -7.31451,-10.20492 -0.39325,-0.82583 -6.10148,-11.75031 -15.7506,-13.2241 -1.36255,-0.16684 -4.02508,-0.31283 -4.0668,-0.25026 -0.0417,0.0626 0.014,0.52139 0.014,0.52139 l -0.11123,0.35454 -2.1342,0.24331 -0.99411,0.29893 c 0,0 -2.12519,0.45522 -2.83304,0.80915 -0.70786,0.35393 -6.92126,3.40164 -9.59538,6.60665 -0.74718,0.78651 -5.97745,7.43249 -6.72463,10.91278 -0.1573,0.53089 -0.43258,1.88761 -0.64887,2.08424 -0.21629,0.19663 -0.58988,0.82583 -0.8455,1.12077 -0.25561,0.29494 -0.57021,0.82583 -0.70785,1.12077 -0.13764,0.29494 -0.43258,2.69379 -0.57022,3.28367 -0.13764,0.58988 -0.25561,1.23875 -0.3146,1.74997 -0.059,0.51123 -0.0197,0.98314 -0.0393,1.41572 -0.0197,0.43258 -0.21629,2.00559 -0.21629,2.24154 0,0.23595 -0.27527,1.04212 -0.059,1.51402 0.21628,0.47191 0.58988,2.37919 0.74718,2.87075 0.1573,0.49157 1.29773,1.88762 1.57301,2.28087 0.27528,0.39325 0.94381,0.27528 0.90448,0.72752 -0.0393,0.45224 -0.0787,1.3174 -0.0197,1.57301 0.059,0.25562 0.0983,1.06179 0.11797,1.25841 0.0197,0.19663 0.6882,2.57581 0.76685,2.92974 0.0787,0.35393 0.88481,1.00279 1.00279,1.53369 0.11798,0.53089 1.12077,2.75277 2.22188,4.66005 1.10111,1.90727 1.39605,3.44096 1.39605,3.44096 l 0.11798,4.36511 -0.35393,0.41292 -0.53089,0.25561 0.1573,0.19663 -0.88482,0.0983 c 0,0 0.0197,1.27808 -0.0393,1.41572 -0.059,0.13764 -0.66853,3.75556 -0.66853,3.75556 0,0 -0.90909,-0.045 -1.31924,-0.0589 -0.41016,-0.0139 -1.14705,0.88288 -2.34276,1.46683 -0.91764,0.22246 -2.99381,0.73527 -2.95448,0.73527 0.0393,0 -3.37215,1.39605 -3.61793,1.38622 -0.24578,-0.01 -0.88482,-0.16713 -1.76964,0.32443 -0.88482,0.49157 -1.36656,3.24434 -1.44521,3.6376 -0.0787,0.39325 -0.6292,0.55055 -0.70785,0.60954 -0.0786,0.059 -2.57581,0.98313 -2.57581,0.98313 l -3.36232,1.57302 -5.2106,1.4747 c 0,0 -11.50234,5.18181 -11.83603,5.34865 -0.33369,0.16684 -1.21015,2.48692 -1.19048,2.86051 0.0197,0.37359 -0.0393,0.68819 0.0295,0.83566 0.0688,0.14747 0.37359,0.6292 0.36376,0.76684 -0.01,0.13764 0.22612,0.55056 0.0885,0.67837 -0.13764,0.1278 -0.40308,0.56038 -0.61937,0.63903 -0.21629,0.0787 -0.36376,0.24579 -0.41292,0.35393 -0.0491,0.10814 -1.95732,3.90406 -1.98513,4.37678 -0.0278,0.47273 -0.79714,4.66804 -0.79714,4.88433 -0.49156,0.35393 -7.92405,6.62632 -8.12067,6.78362 -0.19663,0.1573 -0.94381,1.21908 -1.33707,2.28087 -0.39325,1.06178 -1.29773,3.93253 -1.29773,3.93253 0,0 -4.4241,9.37909 -5.60386,10.42121 -0.45224,0.47191 -1.17976,1.41571 -1.21908,1.632 -0.0393,0.21629 -0.41292,2.02526 -0.41292,2.02526 l -0.43258,6.54766 -0.3146,3.69658 c 0,0 -0.4719,4.64039 -0.39325,5.15162 0.0786,0.51124 0.27527,1.40587 0.29494,1.50419 0.0196,0.0983 0.27527,1.54353 0.27527,1.54353 l 0.74718,3.38198 0.16784,0.62638 z"
         id="path27" /><path
         style="fill:#6c6c6c;fill-opacity:0.60416299;fill-rule:evenodd;stroke-width:1.61396;stroke-linecap:round;stroke-linejoin:round;stroke-dasharray:3.22792, 1.61396, 0.806979, 1.61396;paint-order:markers fill stroke;stroke:none;stroke-opacity:1"
         d="m 196.26323,271.45389 c 0,0 -1.83528,-4.11546 -1.94651,-5.67267 -0.11123,-1.5572 0.61176,-5.78389 1.00106,-7.78601 0.3893,-2.00212 1.70208,-3.20645 2.64589,-3.75701 0.9438,-0.55055 3.14602,-2.16289 3.7359,-2.4775 0.58988,-0.3146 5.7415,-2.98872 6.41003,-3.22467 0.66853,-0.23595 2.51682,-1.10111 3.264,-1.41571 0.74718,-0.3146 7.15721,-2.9494 7.58979,-3.1067 0.43258,-0.1573 2.51682,-1.06179 2.51682,-1.06179 0,0 -0.23596,-2.35952 -0.23596,-3.14602 0,-0.78651 0.11798,-2.39885 0.19663,-3.22468 0.0787,-0.82583 0.39326,-2.04492 0.27528,-2.71345 -0.11798,-0.66853 -0.90448,-4.32578 -0.70786,-4.91566 0.19663,-0.58988 0.39326,-1.76964 1.10111,-2.83142 0.70786,-1.06179 3.49996,-9.26112 3.73591,-9.79201 0.23595,-0.53089 2.16289,-4.95499 2.16289,-4.95499 l 1.49436,-3.48029 c 0,0 1.49437,-3.40164 1.65167,-3.73591 0.1573,-0.33426 0.29494,-0.7865 0.29494,-0.7865 0,0 0.37359,-5.03364 0.49156,-5.40723 0.11798,-0.3736 0.26545,-2.90025 1.06179,-4.63056 0.2851,-0.36376 0.17696,-0.85533 3.86371,-0.68819 3.68675,0.16713 8.85803,0.63903 8.85803,0.63903 l 7.30468,0.54073 6.41002,0.6292 8.74006,0.63904 7.58979,0.52106 8.45494,0.67836 9.77234,0.71769 3.4803,0.39325 c 0,0 1.3567,0.12781 1.39605,1.21908 0.0393,1.09128 -0.0295,2.03509 -0.0295,2.03509 l -0.49948,4.64312 c 0,0 0.74385,-0.3615 1.45987,-0.25027 0.73689,0.13209 1.39732,0.41016 1.0845,2.02993 -0.31284,1.61977 -0.43797,2.68339 -0.45188,2.78767 -0.014,0.10428 0.20161,1.25828 0.22942,1.43902 0.0278,0.18075 0.0834,1.63368 0.27807,2.12725 0.19463,0.49358 0.82032,2.97537 0.85506,3.03794 0.0348,0.0626 0.82031,2.28714 0.9802,2.46094 0.15989,0.17379 0.79251,2.44008 0.77862,2.62778 -0.014,0.1877 -0.16685,2.25238 -0.19466,2.59302 -0.0278,0.34064 -0.11123,1.36255 -0.16684,1.72404 -0.0556,0.3615 -0.0695,1.24438 -0.0695,1.47379 0,0.22941 -0.0278,4.15717 -0.0556,4.22669 -0.0278,0.0695 0.19635,1.72893 0.33399,1.91572 0.13763,0.1868 0.96348,0.92415 1.09127,0.97331 0.12782,0.0491 3.43114,1.74997 3.89321,2.06457 0.46207,0.31461 2.73312,2.06458 3.14603,2.42834 0.41291,0.37359 3.33282,2.90025 3.49996,3.14603 0.16714,0.24578 1.11093,1.45504 1.30757,1.57301 0.19661,0.11798 1.14044,0.33427 1.26823,0.41292 0.12782,0.0786 1.77948,1.39605 2.10391,1.62217 0.32444,0.22612 1.74998,1.3174 2.08423,1.56318 0.33428,0.24578 1.50421,1.33706 1.50421,1.33706 l 3.51962,2.51682 c 0,0 0.30477,0.35393 0.38341,0.5014 0.0787,0.14747 0.0288,3.47036 -0.0824,3.94309 -0.11123,0.47272 -0.72297,3.83739 -0.75078,4.36573 -0.0278,0.52833 -1.33474,3.0866 -1.66844,3.92081 -0.33369,0.83422 -1.9187,3.25343 -2.08555,3.53151 -0.16684,0.27808 -3.94861,4.14327 -3.94861,4.14327 z"
         id="path28" /><path
         style="fill:#dadada;fill-opacity:0.5;fill-rule:evenodd;stroke-width:1.61396;stroke-linecap:round;stroke-linejoin:round;stroke-dasharray:3.22792, 1.61396, 0.806979, 1.61396;paint-order:markers fill stroke;stroke:none;stroke-opacity:1"
         d="m 280.66483,243.06981 c 0,0 -7.23588,-4.52241 -8.49429,-6.17408 -1.25841,-1.65166 -10.22458,-5.97745 -10.22458,-6.13475 0,-0.1573 -4.0505,-2.83142 -4.67971,-3.44096 -0.62921,-0.60955 -1.06178,-1.53369 -1.00279,-2.22188 0.059,-0.6882 0.57021,-1.57302 1.14043,-1.55335 0.57022,0.0197 1.69099,0 1.59267,-0.17697 -0.0983,-0.17696 -0.76684,-1.51402 -1.51402,-1.76964 -0.74718,-0.25561 -2.61513,-1.06178 -2.73311,-1.19942 -0.11798,-0.13764 -1.74998,-1.10111 -0.92414,-2.98872 0.55055,-0.86516 1.04212,-1.04212 1.21908,-1.0028 0.17696,0.0393 -1.12077,-1.10111 -1.21908,-1.67132 -0.0983,-0.57022 -0.13764,-0.94381 0.0983,-1.35673 0.23595,-0.41291 0.60954,-1.37638 1.49436,-1.632 0.88482,-0.25561 3.14603,0.0393 3.63759,0.17696 0.49157,0.13764 5.32858,1.94661 5.93811,2.18256 0.60955,0.23595 8.84822,5.01398 8.96618,5.09263 0.11797,0.0786 2.49716,1.37638 2.73311,1.57301 0.23596,0.19663 0.82585,0.76685 0.92414,0.51123 0.0983,-0.25561 0.25562,-0.6292 -0.0983,-1.16009 -0.35393,-0.5309 -0.98314,-1.19943 -1.43539,-1.55336 -0.45223,-0.35392 -4.52239,-3.264 -4.52239,-3.264 0,0 -4.91567,-3.49995 -5.17128,-3.8932 -0.25562,-0.39326 -3.55896,-2.26121 -3.63761,-2.35952 -0.0787,-0.0983 -1.55335,-1.55335 -0.68819,-2.57581 0.86515,-1.02246 2.39884,-1.45504 3.264,-1.12077 0.86516,0.33426 4.52241,1.57301 4.91566,1.90727 0.39325,0.33427 7.09822,4.22748 7.09822,4.22748 0,0 5.82014,4.03084 5.97747,4.08983 0.15729,0.059 5.8398,3.71624 5.8398,3.71624 0,0 3.61794,1.08145 4.73869,0.43258 1.12077,-0.64887 1.76964,-0.60954 1.94661,-0.88482 0.17696,-0.27528 0.76685,-2.9494 0.98314,-3.49995 0.21627,-0.55056 0.62921,-3.24434 0.68818,-3.71625 0.059,-0.4719 0.27528,-3.53927 0.27528,-3.53927 0,0 1.17977,-7.64878 1.17977,-7.84541 0,-0.19662 0.56039,-2.67412 -1.68116,-2.83142 -1.83846,-0.0786 -61.45673,-4.73701 -61.45673,-4.73701 0,0 -1.52939,-0.26417 -2.48874,0.47272 -0.62566,0.54224 -1.154,1.20961 -1.29304,3.78178 -0.13903,2.54436 -0.77888,7.16782 -0.77888,7.16782 l -0.3056,3.39892 -0.67753,6.35376 c 0,0 1.4747,0.10814 1.4452,0.7865 -0.0295,0.67836 -0.0308,2.05001 -0.0586,2.20295 -0.0278,0.15294 -0.41711,2.59998 -0.52834,2.96147 -0.11123,0.36149 -0.52834,2.89195 -0.52834,2.89195 0,0 -0.73689,2.89195 -0.75079,3.01708 -0.0139,0.12513 -0.30588,0.95935 -0.30588,0.95935 l -0.0695,1.71014 -0.56047,4.81861 -0.061,6.35865"
         id="path29"
         sodipodi:nodetypes="csssssssscssssssssssscssssscscsssscscccccccssscscccc" /></g><g
       id="g34"
       transform="matrix(1.4599864,0,0,1.4599864,-362.41237,-136.47659)"
       style="stroke-width:0.684938"><path
         style="fill:#000000;fill-opacity:1;fill-rule:evenodd;stroke:none;stroke-width:1.10546;stroke-linecap:round;stroke-linejoin:round;stroke-dasharray:2.21092, 1.10546, 0.552731, 1.10546;paint-order:markers fill stroke"
         d="m 335.01241,132.76228 c -0.39325,0 -1.92693,-0.19662 -1.92693,-0.19662 0,0 -1.76964,-4.28646 -1.96628,-4.79769 -0.19661,-0.51123 -2.59546,-7.31451 -2.71344,-7.51114 -0.11797,-0.19662 -0.66854,-0.98313 -1.17977,-1.57301 -0.51123,-0.58988 -0.74719,-1.88762 -0.62921,-2.16289 0.11798,-0.27528 2.24155,-5.38757 2.83144,-5.78082 0.58986,-0.39326 1.84827,-0.94381 2.12357,-0.94381 0.27527,0 1.10109,-0.51123 1.49434,-0.47191 0.39328,0.0393 1.96628,-0.23595 2.32021,-0.23595 0.35394,0 2.98871,0.3146 2.98871,0.3146 0,0 0.62921,0.62921 0.74718,0.94381 0.11798,0.3146 0.51123,0.39326 1.17978,0.51123 0.66852,0.11798 2.87073,2.00559 2.87073,2.00559 0,0 2.51682,2.59547 2.51682,3.22468 0,0.6292 0.11798,1.84829 0.11798,2.00559 0,0.1573 -0.0393,1.37639 -0.0393,1.37639 0,0 -1.73032,0.4719 -1.73032,1.45503 0,0.98314 -2.51682,11.75827 -2.51682,11.75827 l -2.91007,0.55056 z"
         id="path30" /><path
         style="fill:#000000;fill-opacity:1;fill-rule:evenodd;stroke:none;stroke-width:1.10546;stroke-linecap:round;stroke-linejoin:round;stroke-dasharray:2.21092, 1.10546, 0.552731, 1.10546;paint-order:markers fill stroke"
         d="m 332.22032,109.63899 c 0,-1.2584 -4.87635,-67.324944 -4.87635,-67.324944 l 3.95102,67.719054 c 0,0 0.96081,-0.51013 0.92533,-0.39411 z"
         id="path31" /><path
         style="fill:#000000;fill-opacity:1;fill-rule:evenodd;stroke:none;stroke-width:1.10546;stroke-linecap:round;stroke-linejoin:round;stroke-dasharray:2.21092, 1.10546, 0.552731, 1.10546;paint-order:markers fill stroke"
         d="m 341.63926,111.82666 -4.85721,-62.434058 4.18986,62.072568 z"
         id="path32"
         sodipodi:nodetypes="cccc" /><path
         style="fill:#000000;fill-opacity:1;fill-rule:evenodd;stroke:none;stroke-width:1.10546;stroke-linecap:round;stroke-linejoin:round;stroke-dasharray:2.21092, 1.10546, 0.552731, 1.10546;paint-order:markers fill stroke"
         d="m 335.9666,109.05984 -0.0278,-1.5572 0.94543,-1.08448 -1.02886,-2.83634 c 0,0 -0.61174,-1.69623 -0.41711,-1.61281 0.19465,0.0834 0.94546,-0.16685 1.05669,-0.19465 0.11123,-0.0278 0.27805,-0.41711 -0.0556,-0.63957 -0.33369,-0.22246 -0.83423,-0.27807 -0.91765,-0.41711 -0.0834,-0.13903 0,-0.11123 0.0556,-0.97325 0.0556,-0.862023 -0.22247,-1.251323 -0.38929,-1.334746 -0.16684,-0.08342 -0.7508,-0.722988 -0.69519,-0.194649 0.0556,0.528336 -0.0834,1.362551 -0.13904,1.696238 -0.0556,0.333687 -0.16684,2.168957 -0.16684,2.168957 0,0 -0.11123,2.91976 -0.11123,3.03099 0,0.11123 -0.52832,4.31012 -0.52832,4.31012 z"
         id="path33" /><path
         style="fill:#000000;fill-opacity:1;fill-rule:evenodd;stroke:none;stroke-width:1.10546;stroke-linecap:round;stroke-linejoin:round;stroke-dasharray:2.21092, 1.10546, 0.552731, 1.10546;paint-order:markers fill stroke"
         d="m 334.79871,98.354071 -0.77862,-54.307465 -0.66736,-0.111228 0.90374,56.462522 0.13904,0.0904 z"
         id="path34" /></g><path
       style="fill:#000000;fill-opacity:1;fill-rule:evenodd;stroke:none;stroke-width:1.61396;stroke-linecap:round;stroke-linejoin:round;stroke-dasharray:3.22792, 1.61396, 0.806979, 1.61396;paint-order:markers fill stroke"
       d="m 127.69761,73.271975 c 0,0 3.21869,2.586068 4.7759,1.140094 1.5572,-1.445974 3.78177,-4.671607 0.88983,-7.118643 -2.89195,-2.447033 -3.33687,-12.235169 -3.33687,-12.235169 l 3.67055,0.556146 2.55826,9.23199 2.55827,6.340043 c 0,0 0.70756,7.576803 -3.11441,7.897243 -1.62921,0.136596 -3.17218,-0.421173 -4.30836,-1.066409 -2.96269,-1.682504 -4.80545,-4.404657 -4.80545,-4.404657 z"
       id="path35"
       sodipodi:nodetypes="cssccccsscc" /><text
       xml:space="preserve"
       style="font-weight:bold;font-size:45.5083px;line-height:1.2;font-family:'Roboto Mono';-inkscape-font-specification:'Roboto Mono, Bold';text-align:start;writing-mode:lr-tb;direction:ltr;text-anchor:start;fill:#084af0;fill-opacity:1;fill-rule:evenodd;stroke-width:1.61396;stroke-linecap:round;stroke-linejoin:round;stroke-dasharray:3.22792, 1.61396, 0.806979, 1.61396;paint-order:markers fill stroke"
       x="90.04483"
       y="139.94247"
       id="text30"
       transform="rotate(-18.42599)"><tspan
         sodipodi:role="line"
         id="tspan30"
         style="font-size:45.5083px;fill:#084af0;fill-opacity:1;stroke-width:1.61396"
         x="90.04483"
         y="139.94247">D</tspan></text><path
       style="fill:#000000;fill-opacity:1;fill-rule:evenodd;stroke:none;stroke-width:1.61396;stroke-linecap:round;stroke-linejoin:round;stroke-dasharray:3.22792, 1.61396, 0.806979, 1.61396;paint-order:markers fill stroke"
       d="m 133.32681,74.696409 c 0,0 2.10122,-4.511033 -0.0121,-7.430789 3.42029,0.583951 4.49781,1.418167 4.49781,1.418167 0,0 2.53045,6.5625 0.16684,8.648038 -1.05667,0.361495 -4.65252,-2.635416 -4.65252,-2.635416 z"
       id="path36"
       sodipodi:nodetypes="ccccc" /></g><script
     id="mesh_polyfill"
     type="text/javascript">
!function(){const t=&quot;http://www.w3.org/2000/svg&quot;,e=&quot;http://www.w3.org/1999/xlink&quot;,s=&quot;http://www.w3.org/1999/xhtml&quot;,r=2;if(document.createElementNS(t,&quot;meshgradient&quot;).x)return;const n=(t,e,s,r)=&gt;{let n=new x(.5*(e.x+s.x),.5*(e.y+s.y)),o=new x(.5*(t.x+e.x),.5*(t.y+e.y)),i=new x(.5*(s.x+r.x),.5*(s.y+r.y)),a=new x(.5*(n.x+o.x),.5*(n.y+o.y)),h=new x(.5*(n.x+i.x),.5*(n.y+i.y)),l=new x(.5*(a.x+h.x),.5*(a.y+h.y));return[[t,o,a,l],[l,h,i,r]]},o=t=&gt;{let e=t[0].distSquared(t[1]),s=t[2].distSquared(t[3]),r=.25*t[0].distSquared(t[2]),n=.25*t[1].distSquared(t[3]),o=e&gt;s?e:s,i=r&gt;n?r:n;return 18*(o&gt;i?o:i)},i=(t,e)=&gt;Math.sqrt(t.distSquared(e)),a=(t,e)=&gt;t.scale(2/3).add(e.scale(1/3)),h=t=&gt;{let e,s,r,n,o,i,a,h=new g;return t.match(/(\w+\(\s*[^)]+\))+/g).forEach(t=&gt;{let l=t.match(/[\w.-]+/g),d=l.shift();switch(d){case&quot;translate&quot;:2===l.length?e=new g(1,0,0,1,l[0],l[1]):(console.error(&quot;mesh.js: translate does not have 2 arguments!&quot;),e=new g(1,0,0,1,0,0)),h=h.append(e);break;case&quot;scale&quot;:1===l.length?s=new g(l[0],0,0,l[0],0,0):2===l.length?s=new g(l[0],0,0,l[1],0,0):(console.error(&quot;mesh.js: scale does not have 1 or 2 arguments!&quot;),s=new g(1,0,0,1,0,0)),h=h.append(s);break;case&quot;rotate&quot;:if(3===l.length&amp;&amp;(e=new g(1,0,0,1,l[1],l[2]),h=h.append(e)),l[0]){r=l[0]*Math.PI/180;let t=Math.cos(r),e=Math.sin(r);Math.abs(t)&lt;1e-16&amp;&amp;(t=0),Math.abs(e)&lt;1e-16&amp;&amp;(e=0),a=new g(t,e,-e,t,0,0),h=h.append(a)}else console.error(&quot;math.js: No argument to rotate transform!&quot;);3===l.length&amp;&amp;(e=new g(1,0,0,1,-l[1],-l[2]),h=h.append(e));break;case&quot;skewX&quot;:l[0]?(r=l[0]*Math.PI/180,n=Math.tan(r),o=new g(1,0,n,1,0,0),h=h.append(o)):console.error(&quot;math.js: No argument to skewX transform!&quot;);break;case&quot;skewY&quot;:l[0]?(r=l[0]*Math.PI/180,n=Math.tan(r),i=new g(1,n,0,1,0,0),h=h.append(i)):console.error(&quot;math.js: No argument to skewY transform!&quot;);break;case&quot;matrix&quot;:6===l.length?h=h.append(new g(...l)):console.error(&quot;math.js: Incorrect number of arguments for matrix!&quot;);break;default:console.error(&quot;mesh.js: Unhandled transform type: &quot;+d)}}),h},l=t=&gt;{let e=[],s=t.split(/[ ,]+/);for(let t=0,r=s.length-1;t&lt;r;t+=2)e.push(new x(parseFloat(s[t]),parseFloat(s[t+1])));return e},d=(t,e)=&gt;{for(let s in e)t.setAttribute(s,e[s])},c=(t,e,s,r,n)=&gt;{let o,i,a=[0,0,0,0];for(let h=0;h&lt;3;++h)e[h]&lt;t[h]&amp;&amp;e[h]&lt;s[h]||t[h]&lt;e[h]&amp;&amp;s[h]&lt;e[h]?a[h]=0:(a[h]=.5*((e[h]-t[h])/r+(s[h]-e[h])/n),o=Math.abs(3*(e[h]-t[h])/r),i=Math.abs(3*(s[h]-e[h])/n),a[h]&gt;o?a[h]=o:a[h]&gt;i&amp;&amp;(a[h]=i));return a},u=[[1,0,0,0,0,0,0,0,0,0,0,0,0,0,0,0],[0,0,0,0,1,0,0,0,0,0,0,0,0,0,0,0],[-3,3,0,0,-2,-1,0,0,0,0,0,0,0,0,0,0],[2,-2,0,0,1,1,0,0,0,0,0,0,0,0,0,0],[0,0,0,0,0,0,0,0,1,0,0,0,0,0,0,0],[0,0,0,0,0,0,0,0,0,0,0,0,1,0,0,0],[0,0,0,0,0,0,0,0,-3,3,0,0,-2,-1,0,0],[0,0,0,0,0,0,0,0,2,-2,0,0,1,1,0,0],[-3,0,3,0,0,0,0,0,-2,0,-1,0,0,0,0,0],[0,0,0,0,-3,0,3,0,0,0,0,0,-2,0,-1,0],[9,-9,-9,9,6,3,-6,-3,6,-6,3,-3,4,2,2,1],[-6,6,6,-6,-3,-3,3,3,-4,4,-2,2,-2,-2,-1,-1],[2,0,-2,0,0,0,0,0,1,0,1,0,0,0,0,0],[0,0,0,0,2,0,-2,0,0,0,0,0,1,0,1,0],[-6,6,6,-6,-4,-2,4,2,-3,3,-3,3,-2,-1,-2,-1],[4,-4,-4,4,2,2,-2,-2,2,-2,2,-2,1,1,1,1]],f=t=&gt;{let e=[];for(let s=0;s&lt;16;++s){e[s]=0;for(let r=0;r&lt;16;++r)e[s]+=u[s][r]*t[r]}return e},p=(t,e,s)=&gt;{const r=e*e,n=s*s,o=e*e*e,i=s*s*s;return t[0]+t[1]*e+t[2]*r+t[3]*o+t[4]*s+t[5]*s*e+t[6]*s*r+t[7]*s*o+t[8]*n+t[9]*n*e+t[10]*n*r+t[11]*n*o+t[12]*i+t[13]*i*e+t[14]*i*r+t[15]*i*o},y=t=&gt;{let e=[],s=[],r=[];for(let s=0;s&lt;4;++s)e[s]=[],e[s][0]=n(t[0][s],t[1][s],t[2][s],t[3][s]),e[s][1]=[],e[s][1].push(...n(...e[s][0][0])),e[s][1].push(...n(...e[s][0][1])),e[s][2]=[],e[s][2].push(...n(...e[s][1][0])),e[s][2].push(...n(...e[s][1][1])),e[s][2].push(...n(...e[s][1][2])),e[s][2].push(...n(...e[s][1][3]));for(let t=0;t&lt;8;++t){s[t]=[];for(let r=0;r&lt;4;++r)s[t][r]=[],s[t][r][0]=n(e[0][2][t][r],e[1][2][t][r],e[2][2][t][r],e[3][2][t][r]),s[t][r][1]=[],s[t][r][1].push(...n(...s[t][r][0][0])),s[t][r][1].push(...n(...s[t][r][0][1])),s[t][r][2]=[],s[t][r][2].push(...n(...s[t][r][1][0])),s[t][r][2].push(...n(...s[t][r][1][1])),s[t][r][2].push(...n(...s[t][r][1][2])),s[t][r][2].push(...n(...s[t][r][1][3]))}for(let t=0;t&lt;8;++t){r[t]=[];for(let e=0;e&lt;8;++e)r[t][e]=[],r[t][e][0]=s[t][0][2][e],r[t][e][1]=s[t][1][2][e],r[t][e][2]=s[t][2][2][e],r[t][e][3]=s[t][3][2][e]}return r};class x{constructor(t,e){this.x=t||0,this.y=e||0}toString(){return`(x=${this.x}, y=${this.y})`}clone(){return new x(this.x,this.y)}add(t){return new x(this.x+t.x,this.y+t.y)}scale(t){return void 0===t.x?new x(this.x*t,this.y*t):new x(this.x*t.x,this.y*t.y)}distSquared(t){let e=this.x-t.x,s=this.y-t.y;return e*e+s*s}transform(t){let e=this.x*t.a+this.y*t.c+t.e,s=this.x*t.b+this.y*t.d+t.f;return new x(e,s)}}class g{constructor(t,e,s,r,n,o){void 0===t?(this.a=1,this.b=0,this.c=0,this.d=1,this.e=0,this.f=0):(this.a=t,this.b=e,this.c=s,this.d=r,this.e=n,this.f=o)}toString(){return`affine: ${this.a} ${this.c} ${this.e} \n       ${this.b} ${this.d} ${this.f}`}append(t){t instanceof g||console.error(&quot;mesh.js: argument to Affine.append is not affine!&quot;);let e=this.a*t.a+this.c*t.b,s=this.b*t.a+this.d*t.b,r=this.a*t.c+this.c*t.d,n=this.b*t.c+this.d*t.d,o=this.a*t.e+this.c*t.f+this.e,i=this.b*t.e+this.d*t.f+this.f;return new g(e,s,r,n,o,i)}}class w{constructor(t,e){this.nodes=t,this.colors=e}paintCurve(t,e){if(o(this.nodes)&gt;r){const s=n(...this.nodes);let r=[[],[]],o=[[],[]];for(let t=0;t&lt;4;++t)r[0][t]=this.colors[0][t],r[1][t]=(this.colors[0][t]+this.colors[1][t])/2,o[0][t]=r[1][t],o[1][t]=this.colors[1][t];let i=new w(s[0],r),a=new w(s[1],o);i.paintCurve(t,e),a.paintCurve(t,e)}else{let s=Math.round(this.nodes[0].x);if(s&gt;=0&amp;&amp;s&lt;e){let r=4*(~~this.nodes[0].y*e+s);t[r]=Math.round(this.colors[0][0]),t[r+1]=Math.round(this.colors[0][1]),t[r+2]=Math.round(this.colors[0][2]),t[r+3]=Math.round(this.colors[0][3])}}}}class m{constructor(t,e){this.nodes=t,this.colors=e}split(){let t=[[],[],[],[]],e=[[],[],[],[]],s=[[[],[]],[[],[]]],r=[[[],[]],[[],[]]];for(let s=0;s&lt;4;++s){const r=n(this.nodes[0][s],this.nodes[1][s],this.nodes[2][s],this.nodes[3][s]);t[0][s]=r[0][0],t[1][s]=r[0][1],t[2][s]=r[0][2],t[3][s]=r[0][3],e[0][s]=r[1][0],e[1][s]=r[1][1],e[2][s]=r[1][2],e[3][s]=r[1][3]}for(let t=0;t&lt;4;++t)s[0][0][t]=this.colors[0][0][t],s[0][1][t]=this.colors[0][1][t],s[1][0][t]=(this.colors[0][0][t]+this.colors[1][0][t])/2,s[1][1][t]=(this.colors[0][1][t]+this.colors[1][1][t])/2,r[0][0][t]=s[1][0][t],r[0][1][t]=s[1][1][t],r[1][0][t]=this.colors[1][0][t],r[1][1][t]=this.colors[1][1][t];return[new m(t,s),new m(e,r)]}paint(t,e){let s,n=!1;for(let t=0;t&lt;4;++t)if((s=o([this.nodes[0][t],this.nodes[1][t],this.nodes[2][t],this.nodes[3][t]]))&gt;r){n=!0;break}if(n){let s=this.split();s[0].paint(t,e),s[1].paint(t,e)}else{new w([...this.nodes[0]],[...this.colors[0]]).paintCurve(t,e)}}}class b{constructor(t){this.readMesh(t),this.type=t.getAttribute(&quot;type&quot;)||&quot;bilinear&quot;}readMesh(t){let e=[[]],s=[[]],r=Number(t.getAttribute(&quot;x&quot;)),n=Number(t.getAttribute(&quot;y&quot;));e[0][0]=new x(r,n);let o=t.children;for(let t=0,r=o.length;t&lt;r;++t){e[3*t+1]=[],e[3*t+2]=[],e[3*t+3]=[],s[t+1]=[];let r=o[t].children;for(let n=0,o=r.length;n&lt;o;++n){let o=r[n].children;for(let r=0,i=o.length;r&lt;i;++r){let i=r;0!==t&amp;&amp;++i;let h,d=o[r].getAttribute(&quot;path&quot;),c=&quot;l&quot;;null!=d&amp;&amp;(c=(h=d.match(/\s*([lLcC])\s*(.*)/))[1]);let u=l(h[2]);switch(c){case&quot;l&quot;:0===i?(e[3*t][3*n+3]=u[0].add(e[3*t][3*n]),e[3*t][3*n+1]=a(e[3*t][3*n],e[3*t][3*n+3]),e[3*t][3*n+2]=a(e[3*t][3*n+3],e[3*t][3*n])):1===i?(e[3*t+3][3*n+3]=u[0].add(e[3*t][3*n+3]),e[3*t+1][3*n+3]=a(e[3*t][3*n+3],e[3*t+3][3*n+3]),e[3*t+2][3*n+3]=a(e[3*t+3][3*n+3],e[3*t][3*n+3])):2===i?(0===n&amp;&amp;(e[3*t+3][3*n+0]=u[0].add(e[3*t+3][3*n+3])),e[3*t+3][3*n+1]=a(e[3*t+3][3*n],e[3*t+3][3*n+3]),e[3*t+3][3*n+2]=a(e[3*t+3][3*n+3],e[3*t+3][3*n])):(e[3*t+1][3*n]=a(e[3*t][3*n],e[3*t+3][3*n]),e[3*t+2][3*n]=a(e[3*t+3][3*n],e[3*t][3*n]));break;case&quot;L&quot;:0===i?(e[3*t][3*n+3]=u[0],e[3*t][3*n+1]=a(e[3*t][3*n],e[3*t][3*n+3]),e[3*t][3*n+2]=a(e[3*t][3*n+3],e[3*t][3*n])):1===i?(e[3*t+3][3*n+3]=u[0],e[3*t+1][3*n+3]=a(e[3*t][3*n+3],e[3*t+3][3*n+3]),e[3*t+2][3*n+3]=a(e[3*t+3][3*n+3],e[3*t][3*n+3])):2===i?(0===n&amp;&amp;(e[3*t+3][3*n+0]=u[0]),e[3*t+3][3*n+1]=a(e[3*t+3][3*n],e[3*t+3][3*n+3]),e[3*t+3][3*n+2]=a(e[3*t+3][3*n+3],e[3*t+3][3*n])):(e[3*t+1][3*n]=a(e[3*t][3*n],e[3*t+3][3*n]),e[3*t+2][3*n]=a(e[3*t+3][3*n],e[3*t][3*n]));break;case&quot;c&quot;:0===i?(e[3*t][3*n+1]=u[0].add(e[3*t][3*n]),e[3*t][3*n+2]=u[1].add(e[3*t][3*n]),e[3*t][3*n+3]=u[2].add(e[3*t][3*n])):1===i?(e[3*t+1][3*n+3]=u[0].add(e[3*t][3*n+3]),e[3*t+2][3*n+3]=u[1].add(e[3*t][3*n+3]),e[3*t+3][3*n+3]=u[2].add(e[3*t][3*n+3])):2===i?(e[3*t+3][3*n+2]=u[0].add(e[3*t+3][3*n+3]),e[3*t+3][3*n+1]=u[1].add(e[3*t+3][3*n+3]),0===n&amp;&amp;(e[3*t+3][3*n+0]=u[2].add(e[3*t+3][3*n+3]))):(e[3*t+2][3*n]=u[0].add(e[3*t+3][3*n]),e[3*t+1][3*n]=u[1].add(e[3*t+3][3*n]));break;case&quot;C&quot;:0===i?(e[3*t][3*n+1]=u[0],e[3*t][3*n+2]=u[1],e[3*t][3*n+3]=u[2]):1===i?(e[3*t+1][3*n+3]=u[0],e[3*t+2][3*n+3]=u[1],e[3*t+3][3*n+3]=u[2]):2===i?(e[3*t+3][3*n+2]=u[0],e[3*t+3][3*n+1]=u[1],0===n&amp;&amp;(e[3*t+3][3*n+0]=u[2])):(e[3*t+2][3*n]=u[0],e[3*t+1][3*n]=u[1]);break;default:console.error(&quot;mesh.js: &quot;+c+&quot; invalid path type.&quot;)}if(0===t&amp;&amp;0===n||r&gt;0){let e=window.getComputedStyle(o[r]).stopColor.match(/^rgb\s*\(\s*(\d+)\s*,\s*(\d+)\s*,\s*(\d+)\s*\)$/i),a=window.getComputedStyle(o[r]).stopOpacity,h=255;a&amp;&amp;(h=Math.floor(255*a)),e&amp;&amp;(0===i?(s[t][n]=[],s[t][n][0]=Math.floor(e[1]),s[t][n][1]=Math.floor(e[2]),s[t][n][2]=Math.floor(e[3]),s[t][n][3]=h):1===i?(s[t][n+1]=[],s[t][n+1][0]=Math.floor(e[1]),s[t][n+1][1]=Math.floor(e[2]),s[t][n+1][2]=Math.floor(e[3]),s[t][n+1][3]=h):2===i?(s[t+1][n+1]=[],s[t+1][n+1][0]=Math.floor(e[1]),s[t+1][n+1][1]=Math.floor(e[2]),s[t+1][n+1][2]=Math.floor(e[3]),s[t+1][n+1][3]=h):3===i&amp;&amp;(s[t+1][n]=[],s[t+1][n][0]=Math.floor(e[1]),s[t+1][n][1]=Math.floor(e[2]),s[t+1][n][2]=Math.floor(e[3]),s[t+1][n][3]=h))}}e[3*t+1][3*n+1]=new x,e[3*t+1][3*n+2]=new x,e[3*t+2][3*n+1]=new x,e[3*t+2][3*n+2]=new x,e[3*t+1][3*n+1].x=(-4*e[3*t][3*n].x+6*(e[3*t][3*n+1].x+e[3*t+1][3*n].x)+-2*(e[3*t][3*n+3].x+e[3*t+3][3*n].x)+3*(e[3*t+3][3*n+1].x+e[3*t+1][3*n+3].x)+-1*e[3*t+3][3*n+3].x)/9,e[3*t+1][3*n+2].x=(-4*e[3*t][3*n+3].x+6*(e[3*t][3*n+2].x+e[3*t+1][3*n+3].x)+-2*(e[3*t][3*n].x+e[3*t+3][3*n+3].x)+3*(e[3*t+3][3*n+2].x+e[3*t+1][3*n].x)+-1*e[3*t+3][3*n].x)/9,e[3*t+2][3*n+1].x=(-4*e[3*t+3][3*n].x+6*(e[3*t+3][3*n+1].x+e[3*t+2][3*n].x)+-2*(e[3*t+3][3*n+3].x+e[3*t][3*n].x)+3*(e[3*t][3*n+1].x+e[3*t+2][3*n+3].x)+-1*e[3*t][3*n+3].x)/9,e[3*t+2][3*n+2].x=(-4*e[3*t+3][3*n+3].x+6*(e[3*t+3][3*n+2].x+e[3*t+2][3*n+3].x)+-2*(e[3*t+3][3*n].x+e[3*t][3*n+3].x)+3*(e[3*t][3*n+2].x+e[3*t+2][3*n].x)+-1*e[3*t][3*n].x)/9,e[3*t+1][3*n+1].y=(-4*e[3*t][3*n].y+6*(e[3*t][3*n+1].y+e[3*t+1][3*n].y)+-2*(e[3*t][3*n+3].y+e[3*t+3][3*n].y)+3*(e[3*t+3][3*n+1].y+e[3*t+1][3*n+3].y)+-1*e[3*t+3][3*n+3].y)/9,e[3*t+1][3*n+2].y=(-4*e[3*t][3*n+3].y+6*(e[3*t][3*n+2].y+e[3*t+1][3*n+3].y)+-2*(e[3*t][3*n].y+e[3*t+3][3*n+3].y)+3*(e[3*t+3][3*n+2].y+e[3*t+1][3*n].y)+-1*e[3*t+3][3*n].y)/9,e[3*t+2][3*n+1].y=(-4*e[3*t+3][3*n].y+6*(e[3*t+3][3*n+1].y+e[3*t+2][3*n].y)+-2*(e[3*t+3][3*n+3].y+e[3*t][3*n].y)+3*(e[3*t][3*n+1].y+e[3*t+2][3*n+3].y)+-1*e[3*t][3*n+3].y)/9,e[3*t+2][3*n+2].y=(-4*e[3*t+3][3*n+3].y+6*(e[3*t+3][3*n+2].y+e[3*t+2][3*n+3].y)+-2*(e[3*t+3][3*n].y+e[3*t][3*n+3].y)+3*(e[3*t][3*n+2].y+e[3*t+2][3*n].y)+-1*e[3*t][3*n].y)/9}}this.nodes=e,this.colors=s}paintMesh(t,e){let s=(this.nodes.length-1)/3,r=(this.nodes[0].length-1)/3;if(&quot;bilinear&quot;===this.type||s&lt;2||r&lt;2){let n;for(let o=0;o&lt;s;++o)for(let s=0;s&lt;r;++s){let r=[];for(let t=3*o,e=3*o+4;t&lt;e;++t)r.push(this.nodes[t].slice(3*s,3*s+4));let i=[];i.push(this.colors[o].slice(s,s+2)),i.push(this.colors[o+1].slice(s,s+2)),(n=new m(r,i)).paint(t,e)}}else{let n,o,a,h,l,d,u;const x=s,g=r;s++,r++;let w=new Array(s);for(let t=0;t&lt;s;++t){w[t]=new Array(r);for(let e=0;e&lt;r;++e)w[t][e]=[],w[t][e][0]=this.nodes[3*t][3*e],w[t][e][1]=this.colors[t][e]}for(let t=0;t&lt;s;++t)for(let e=0;e&lt;r;++e)0!==t&amp;&amp;t!==x&amp;&amp;(n=i(w[t-1][e][0],w[t][e][0]),o=i(w[t+1][e][0],w[t][e][0]),w[t][e][2]=c(w[t-1][e][1],w[t][e][1],w[t+1][e][1],n,o)),0!==e&amp;&amp;e!==g&amp;&amp;(n=i(w[t][e-1][0],w[t][e][0]),o=i(w[t][e+1][0],w[t][e][0]),w[t][e][3]=c(w[t][e-1][1],w[t][e][1],w[t][e+1][1],n,o));for(let t=0;t&lt;r;++t){w[0][t][2]=[],w[x][t][2]=[];for(let e=0;e&lt;4;++e)n=i(w[1][t][0],w[0][t][0]),o=i(w[x][t][0],w[x-1][t][0]),w[0][t][2][e]=n&gt;0?2*(w[1][t][1][e]-w[0][t][1][e])/n-w[1][t][2][e]:0,w[x][t][2][e]=o&gt;0?2*(w[x][t][1][e]-w[x-1][t][1][e])/o-w[x-1][t][2][e]:0}for(let t=0;t&lt;s;++t){w[t][0][3]=[],w[t][g][3]=[];for(let e=0;e&lt;4;++e)n=i(w[t][1][0],w[t][0][0]),o=i(w[t][g][0],w[t][g-1][0]),w[t][0][3][e]=n&gt;0?2*(w[t][1][1][e]-w[t][0][1][e])/n-w[t][1][3][e]:0,w[t][g][3][e]=o&gt;0?2*(w[t][g][1][e]-w[t][g-1][1][e])/o-w[t][g-1][3][e]:0}for(let s=0;s&lt;x;++s)for(let r=0;r&lt;g;++r){let n=i(w[s][r][0],w[s+1][r][0]),o=i(w[s][r+1][0],w[s+1][r+1][0]),c=i(w[s][r][0],w[s][r+1][0]),x=i(w[s+1][r][0],w[s+1][r+1][0]),g=[[],[],[],[]];for(let t=0;t&lt;4;++t){(d=[])[0]=w[s][r][1][t],d[1]=w[s+1][r][1][t],d[2]=w[s][r+1][1][t],d[3]=w[s+1][r+1][1][t],d[4]=w[s][r][2][t]*n,d[5]=w[s+1][r][2][t]*n,d[6]=w[s][r+1][2][t]*o,d[7]=w[s+1][r+1][2][t]*o,d[8]=w[s][r][3][t]*c,d[9]=w[s+1][r][3][t]*x,d[10]=w[s][r+1][3][t]*c,d[11]=w[s+1][r+1][3][t]*x,d[12]=0,d[13]=0,d[14]=0,d[15]=0,u=f(d);for(let e=0;e&lt;9;++e){g[t][e]=[];for(let s=0;s&lt;9;++s)g[t][e][s]=p(u,e/8,s/8),g[t][e][s]&gt;255?g[t][e][s]=255:g[t][e][s]&lt;0&amp;&amp;(g[t][e][s]=0)}}h=[];for(let t=3*s,e=3*s+4;t&lt;e;++t)h.push(this.nodes[t].slice(3*r,3*r+4));l=y(h);for(let s=0;s&lt;8;++s)for(let r=0;r&lt;8;++r)(a=new m(l[s][r],[[[g[0][s][r],g[1][s][r],g[2][s][r],g[3][s][r]],[g[0][s][r+1],g[1][s][r+1],g[2][s][r+1],g[3][s][r+1]]],[[g[0][s+1][r],g[1][s+1][r],g[2][s+1][r],g[3][s+1][r]],[g[0][s+1][r+1],g[1][s+1][r+1],g[2][s+1][r+1],g[3][s+1][r+1]]]])).paint(t,e)}}}transform(t){if(t instanceof x)for(let e=0,s=this.nodes.length;e&lt;s;++e)for(let s=0,r=this.nodes[0].length;s&lt;r;++s)this.nodes[e][s]=this.nodes[e][s].add(t);else if(t instanceof g)for(let e=0,s=this.nodes.length;e&lt;s;++e)for(let s=0,r=this.nodes[0].length;s&lt;r;++s)this.nodes[e][s]=this.nodes[e][s].transform(t)}scale(t){for(let e=0,s=this.nodes.length;e&lt;s;++e)for(let s=0,r=this.nodes[0].length;s&lt;r;++s)this.nodes[e][s]=this.nodes[e][s].scale(t)}}document.querySelectorAll(&quot;rect,circle,ellipse,path,text&quot;).forEach((r,n)=&gt;{let o=r.getAttribute(&quot;id&quot;);o||(o=&quot;patchjs_shape&quot;+n,r.setAttribute(&quot;id&quot;,o));const i=r.style.fill.match(/^url\(\s*&quot;?\s*#([^\s&quot;]+)&quot;?\s*\)/),a=r.style.stroke.match(/^url\(\s*&quot;?\s*#([^\s&quot;]+)&quot;?\s*\)/);if(i&amp;&amp;i[1]){const a=document.getElementById(i[1]);if(a&amp;&amp;&quot;meshgradient&quot;===a.nodeName){const i=r.getBBox();let l=document.createElementNS(s,&quot;canvas&quot;);d(l,{width:i.width,height:i.height});const c=l.getContext(&quot;2d&quot;);let u=c.createImageData(i.width,i.height);const f=new b(a);&quot;objectBoundingBox&quot;===a.getAttribute(&quot;gradientUnits&quot;)&amp;&amp;f.scale(new x(i.width,i.height));const p=a.getAttribute(&quot;gradientTransform&quot;);null!=p&amp;&amp;f.transform(h(p)),&quot;userSpaceOnUse&quot;===a.getAttribute(&quot;gradientUnits&quot;)&amp;&amp;f.transform(new x(-i.x,-i.y)),f.paintMesh(u.data,l.width),c.putImageData(u,0,0);const y=document.createElementNS(t,&quot;image&quot;);d(y,{width:i.width,height:i.height,x:i.x,y:i.y});let g=l.toDataURL();y.setAttributeNS(e,&quot;xlink:href&quot;,g),r.parentNode.insertBefore(y,r),r.style.fill=&quot;none&quot;;const w=document.createElementNS(t,&quot;use&quot;);w.setAttributeNS(e,&quot;xlink:href&quot;,&quot;#&quot;+o);const m=&quot;patchjs_clip&quot;+n,M=document.createElementNS(t,&quot;clipPath&quot;);M.setAttribute(&quot;id&quot;,m),M.appendChild(w),r.parentElement.insertBefore(M,r),y.setAttribute(&quot;clip-path&quot;,&quot;url(#&quot;+m+&quot;)&quot;),u=null,l=null,g=null}}if(a&amp;&amp;a[1]){const o=document.getElementById(a[1]);if(o&amp;&amp;&quot;meshgradient&quot;===o.nodeName){const i=parseFloat(r.style.strokeWidth.slice(0,-2))*(parseFloat(r.style.strokeMiterlimit)||parseFloat(r.getAttribute(&quot;stroke-miterlimit&quot;))||1),a=r.getBBox(),l=Math.trunc(a.width+i),c=Math.trunc(a.height+i),u=Math.trunc(a.x-i/2),f=Math.trunc(a.y-i/2);let p=document.createElementNS(s,&quot;canvas&quot;);d(p,{width:l,height:c});const y=p.getContext(&quot;2d&quot;);let g=y.createImageData(l,c);const w=new b(o);&quot;objectBoundingBox&quot;===o.getAttribute(&quot;gradientUnits&quot;)&amp;&amp;w.scale(new x(l,c));const m=o.getAttribute(&quot;gradientTransform&quot;);null!=m&amp;&amp;w.transform(h(m)),&quot;userSpaceOnUse&quot;===o.getAttribute(&quot;gradientUnits&quot;)&amp;&amp;w.transform(new x(-u,-f)),w.paintMesh(g.data,p.width),y.putImageData(g,0,0);const M=document.createElementNS(t,&quot;image&quot;);d(M,{width:l,height:c,x:0,y:0});let S=p.toDataURL();M.setAttributeNS(e,&quot;xlink:href&quot;,S);const k=&quot;pattern_clip&quot;+n,A=document.createElementNS(t,&quot;pattern&quot;);d(A,{id:k,patternUnits:&quot;userSpaceOnUse&quot;,width:l,height:c,x:u,y:f}),A.appendChild(M),o.parentNode.appendChild(A),r.style.stroke=&quot;url(#&quot;+k+&quot;)&quot;,g=null,p=null,S=null}}})}();
</script></svg>
